<?xml version="1.0" encoding="UTF-8" standalone="no"?>
<!DOCTYPE svg PUBLIC "-//W3C//DTD SVG 1.1//EN" "http://www.w3.org/Graphics/SVG/1.1/DTD/svg11.dtd">
<svg version="1.1" xmlns="http://www.w3.org/2000/svg" xmlns:xlink="http://www.w3.org/1999/xlink" preserveAspectRatio="xMidYMid meet" viewBox="242.76402675387487 47.63864728109186 80.23597324612513 80.65636339201711" width="76.24" height="76.66"><defs><path d="M317.29 79.85L317.29 92.1C312.93 92.1 310.51 92.1 310.02 92.1C309.27 95.65 307.87 99.04 305.88 102.09C306.27 102.48 309.35 105.56 309.73 105.94C308.93 105.94 308.13 106.05 307.36 106.27C305.92 104.83 294.4 93.31 292.96 91.87C296.2 85.34 293.54 77.42 287.01 74.17C280.47 70.93 272.55 73.6 269.31 80.13C266.07 86.66 268.73 94.58 275.27 97.83C278.96 99.66 283.29 99.66 286.98 97.84C288.4 99.26 299.76 110.62 301.18 112.04C300.93 112.73 300.78 113.46 300.71 114.19C300.36 113.84 297.57 111.05 297.22 110.71C294.18 112.7 290.79 114.1 287.23 114.84C287.23 115.33 287.23 117.76 287.23 122.12L274.99 122.12C274.99 117.78 274.99 115.37 274.99 114.89C271.42 114.14 268.03 112.74 264.99 110.75C264.64 111.09 262.93 112.8 259.85 115.89L251.25 107.29C254.33 104.2 256.04 102.49 256.39 102.15C254.39 99.1 252.99 95.71 252.25 92.15C251.76 92.15 249.31 92.15 244.91 92.15L244.91 79.85C249.28 79.85 251.71 79.85 252.19 79.85C252.94 76.29 254.34 72.9 256.33 69.86C255.99 69.52 254.28 67.79 251.19 64.68L259.79 56.02C262.88 59.11 264.59 60.82 264.93 61.16C267.98 59.18 271.37 57.77 274.93 57.02C274.93 56.54 274.93 54.12 274.93 49.76L287.18 49.76C287.18 54.12 287.18 56.54 287.18 57.02C290.73 57.77 294.12 59.18 297.17 61.16C297.51 60.82 299.23 59.11 302.32 56.02L310.92 64.68C307.83 67.77 306.12 69.49 305.78 69.83C307.76 72.88 309.16 76.26 309.92 79.82C310.9 79.82 313.36 79.83 317.29 79.85Z" id="kZKIEcXS6"></path><path d="M301.23 112.04C300.99 112.73 300.83 113.46 300.77 114.19C300.42 113.84 297.62 111.05 297.27 110.71C294.23 112.7 290.84 114.1 287.29 114.84C287.29 115.33 287.29 117.76 287.29 122.12L281.16 122.12C281.16 108.37 281.16 100.73 281.16 99.2C283.2 99.2 285.21 98.74 287.04 97.84C289.88 100.68 299.81 110.62 301.23 112.04Z" id="dfDhoeru5"></path><path d="M317.29 79.85L317.29 92.1C312.93 92.1 310.51 92.1 310.02 92.1C309.27 95.65 307.87 99.04 305.88 102.09C306.27 102.48 309.35 105.56 309.73 105.94C308.93 105.94 308.13 106.05 307.36 106.27C305.92 104.83 294.4 93.31 292.96 91.87C296.21 85.31 293.53 77.37 286.97 74.12C285.16 73.22 283.16 72.75 281.14 72.74C281.14 71.21 281.14 63.56 281.14 49.79L287.26 49.79C287.26 54.15 287.26 56.57 287.26 57.06C290.82 57.81 294.21 59.21 297.25 61.2C297.59 60.85 299.31 59.14 302.4 56.06L311 64.71C307.92 67.8 306.21 69.52 305.86 69.86C307.84 72.91 309.25 76.29 310 79.85C310.97 79.85 313.4 79.85 317.29 79.85Z" id="c4pve3dmzl"></path><path d="M308.34 113.6L307.26 117.52C310.82 121.08 312.8 123.06 313.2 123.46C308.54 125.35 303.22 123.12 301.33 118.46C300.49 116.39 300.43 114.09 301.18 111.98C299.52 110.33 286.27 97.08 284.62 95.43C279.78 96.76 274.77 93.92 273.43 89.07C272.9 87.14 273.02 85.08 273.78 83.23C274.18 83.62 276.15 85.59 279.71 89.15L283.63 88.07L284.7 84.15C281.15 80.6 279.18 78.62 278.78 78.23C283.43 76.33 288.74 78.57 290.64 83.22C291.47 85.27 291.53 87.55 290.8 89.64C292.46 91.3 305.71 104.55 307.37 106.21C312.2 104.86 317.21 107.67 318.57 112.5C319.12 114.46 319 116.55 318.22 118.44C317.82 118.04 315.85 116.06 312.29 112.5L308.34 113.6Z" id="c2qla25Z28"></path><path d="M313.21 123.46C308.55 125.36 303.23 123.13 301.33 118.48C300.48 116.4 300.43 114.09 301.18 111.98C299.52 110.33 286.27 97.08 284.62 95.43C279.78 96.76 274.77 93.92 273.43 89.07C272.9 87.14 273.02 85.08 273.78 83.23C274.18 83.62 276.15 85.59 279.71 89.15L283.63 88.07L308.36 113.54L307.28 117.47C310.44 120.66 312.42 122.66 313.21 123.46Z" id="c2DhVO70dy"></path><path d="M290.35 94.55L291.98 96.18" id="eCW4Ziu9h"></path><path d="M293.94 98.13L299.32 103.5" id="aw3iU9N"></path><path d="M310.21 104.84C309.92 104.55 307.59 102.22 307.3 101.93C308.96 99.23 310.18 96.29 310.92 93.21C311.42 93.21 313.93 93.21 318.44 93.21L318.44 78.73C313.93 78.73 311.42 78.73 310.92 78.73C310.17 75.66 308.95 72.71 307.3 70.01C307.66 69.66 309.42 67.89 312.6 64.71L302.37 54.47C299.19 57.65 297.42 59.42 297.07 59.78C294.37 58.13 291.43 56.91 288.35 56.16C288.35 55.66 288.35 53.15 288.35 48.64L273.87 48.64C273.87 53.15 273.87 55.66 273.87 56.16C270.79 56.9 267.85 58.12 265.15 59.78C264.79 59.42 263.03 57.65 259.85 54.47L249.6 64.68C252.78 67.9 254.55 69.7 254.9 70.06C253.25 72.76 252.03 75.7 251.29 78.77C250.79 78.77 248.28 78.77 243.76 78.77L243.76 93.26C248.28 93.26 250.79 93.26 251.29 93.26C252.03 96.33 253.25 99.28 254.9 101.98C254.55 102.33 252.78 104.1 249.6 107.28L259.85 117.52C263.03 114.34 264.79 112.57 265.15 112.22C267.85 113.87 270.79 115.09 273.87 115.83C273.87 116.34 273.87 118.84 273.87 123.36L288.35 123.36C288.35 118.84 288.35 116.34 288.35 115.83C291.42 115.09 294.37 113.87 297.07 112.22C297.32 112.47 299.31 114.47 299.56 114.72C299.36 120.35 303.77 125.09 309.4 125.29C309.52 125.29 309.65 125.29 309.77 125.3C311.09 125.29 312.4 125.04 313.63 124.53C313.73 124.49 314.25 124.28 315.18 123.9L308.53 117.23L309.25 114.55L311.93 113.83L318.59 120.5C318.97 119.56 319.18 119.03 319.23 118.93C320.81 115.11 319.92 110.72 316.99 107.81C315.18 106 312.76 104.94 310.21 104.84ZM283.45 84.54L282.74 87.26L280.06 87.99L273.41 81.32C273.02 82.26 272.8 82.78 272.76 82.88C270.63 88.11 273.15 94.08 278.38 96.21C280.25 96.97 282.31 97.16 284.29 96.75C284.36 96.82 284.95 97.42 285.03 97.49C278.69 99.65 271.81 96.26 269.65 89.92C267.5 83.59 270.89 76.71 277.22 74.55C283.56 72.4 290.44 75.78 292.6 82.12C293.02 83.38 293.24 84.69 293.24 86.02C293.24 87.35 293.02 88.68 292.59 89.93C292.53 89.88 292.13 89.48 292.08 89.43C293.56 83.98 290.34 78.36 284.89 76.88C282.73 76.3 280.44 76.44 278.36 77.28C278.26 77.32 277.74 77.54 276.8 77.93L283.45 84.54ZM296.61 109.83C293.68 111.74 290.42 113.09 286.99 113.81C286.94 113.83 286.64 113.89 286.1 114.01L286.1 121.06L276.1 121.06L276.1 114.01C275.57 113.89 275.27 113.83 275.21 113.81C271.79 113.09 268.53 111.74 265.6 109.83C265.55 109.8 265.29 109.63 264.84 109.33L259.85 114.33L252.77 107.25L257.76 102.27C257.47 101.81 257.3 101.55 257.27 101.5C255.36 98.57 254.01 95.31 253.29 91.89C253.28 91.83 253.21 91.53 253.1 91L246.04 91L246.04 81L253.1 81C253.21 80.46 253.28 80.17 253.29 80.11C254 76.66 255.35 73.38 257.27 70.43C257.3 70.38 257.47 70.13 257.76 69.68L252.77 64.68L259.85 57.61L264.84 62.6C265.29 62.31 265.55 62.14 265.6 62.11C268.53 60.2 271.79 58.86 275.21 58.15C275.27 58.14 275.57 58.08 276.1 57.97L276.1 50.91L286.1 50.91L286.1 57.97C286.64 58.08 286.94 58.14 286.99 58.15C290.42 58.87 293.68 60.22 296.61 62.14C296.66 62.18 296.91 62.34 297.37 62.64L302.37 57.64L309.44 64.71L304.44 69.71C304.74 70.16 304.91 70.41 304.94 70.46C306.86 73.41 308.21 76.69 308.93 80.14C308.94 80.2 309 80.5 309.11 81.03L316.17 81.03L316.17 91.03L309.11 91.03C309 91.57 308.94 91.86 308.93 91.92C308.21 95.35 306.86 98.61 304.94 101.53C304.92 101.57 304.81 101.72 304.63 102.01L295.28 92.63C294.7 92.05 294.37 91.72 294.31 91.65C297.43 84.36 294.06 75.92 286.77 72.79C279.48 69.66 271.04 73.03 267.91 80.32C264.78 87.61 268.15 96.06 275.44 99.19C277.23 99.96 279.16 100.35 281.1 100.35C283.04 100.36 284.96 99.97 286.74 99.2C287.42 99.88 290.81 103.27 296.92 109.38L297.07 109.53C296.82 109.69 296.67 109.79 296.61 109.83ZM317.64 116.29L312.59 111.24L307.42 112.64L306.02 117.81C309.05 120.84 310.73 122.52 311.07 122.85C306.73 123.57 302.62 120.64 301.91 116.3C301.79 115.59 301.77 114.87 301.84 114.16C301.84 114.13 301.84 113.91 301.84 113.89C301.84 113.84 301.84 113.79 301.84 113.75C301.85 113.71 301.9 113.4 301.91 113.36C301.91 113.33 301.91 113.3 301.91 113.26C301.91 113.12 301.97 112.98 302.01 112.86C302.01 112.85 302.01 112.83 302.01 112.79C302.09 112.56 302.13 112.43 302.14 112.4C302.72 111.19 303.48 110.08 304.4 109.1C304.24 108.94 302.98 107.67 302.82 107.51C302.05 108.3 301.38 109.19 300.82 110.14C300.33 109.65 297.89 107.2 293.49 102.8L287.16 96.47L287.16 96.47L284.91 94.21C284.53 94.32 284.32 94.37 284.27 94.39C280.03 95.55 275.64 93.06 274.47 88.81C274.16 87.7 274.1 86.54 274.29 85.41C274.62 85.74 276.3 87.42 279.33 90.45L284.5 89.04L285.91 83.87C282.88 80.85 281.2 79.16 280.87 78.83C285.21 78.12 289.32 81.07 290.02 85.42C290.24 86.73 290.12 88.08 289.68 89.33C289.66 89.39 289.51 89.84 289.49 89.89C289.12 90.61 288.65 91.28 288.11 91.88C288.27 92.04 289.54 93.31 289.69 93.47C290.25 92.91 290.74 92.28 291.16 91.61C292.22 92.67 297.52 97.98 307.07 107.52C307.44 107.42 307.65 107.36 307.69 107.35C307.86 107.3 308.03 107.26 308.21 107.22C308.21 107.22 308.25 107.22 308.3 107.22L308.47 107.22L308.6 107.22L308.73 107.22L308.86 107.22C309.11 107.22 309.25 107.22 309.28 107.22C313.68 106.93 317.48 110.26 317.77 114.66C317.81 115.26 317.78 115.87 317.68 116.47C317.67 116.44 317.66 116.38 317.64 116.29Z" id="c7p7OlaKbo"></path><path d="M291.15 93.74C291.15 93.74 291.15 93.74 291.15 93.74C292.12 94.72 292.67 95.26 292.77 95.37C292.77 95.37 292.77 95.37 292.77 95.37C291.82 96.32 291.29 96.85 291.18 96.96C291.18 96.96 291.18 96.96 291.18 96.96C290.21 95.98 289.67 95.44 289.56 95.33C289.56 95.33 289.56 95.33 289.56 95.33C290.51 94.38 291.04 93.85 291.15 93.74Z" id="c18EukxWG"></path><path d="M294.73 97.33C294.73 97.33 294.73 97.33 294.73 97.33C297.93 100.53 299.72 102.31 300.07 102.67C300.07 102.67 300.07 102.67 300.07 102.67C299.12 103.62 298.59 104.15 298.48 104.26C298.48 104.26 298.48 104.26 298.48 104.26C295.28 101.05 293.5 99.27 293.14 98.92C293.14 98.92 293.14 98.92 293.14 98.92C294.09 97.96 294.62 97.43 294.73 97.33Z" id="ah07HD4qf"></path><path d="M287.22 108C288.16 107.74 289.09 107.41 289.98 107.03C289.9 106.82 289.19 105.17 289.1 104.96C288.29 105.31 287.46 105.61 286.62 105.85C286.74 106.28 287.16 107.78 287.22 108Z" id="bBHX311cH"></path><path d="M260.69 86.18C260.69 85.02 260.79 83.86 260.99 82.71C260.77 82.67 258.99 82.36 258.77 82.32C258.56 83.6 258.45 84.89 258.45 86.18C258.47 98.72 268.63 108.88 281.17 108.89C281.9 108.89 282.64 108.89 283.37 108.79C283.35 108.57 283.18 106.78 283.16 106.56C282.45 106.61 281.77 106.61 281.11 106.61C269.85 106.57 260.73 97.45 260.69 86.18Z" id="bdSH45xs"></path><path d="M265.4 69.72C264.75 70.34 264.14 70.99 263.58 71.68C263.75 71.82 265.14 72.96 265.31 73.1C265.82 72.48 266.37 71.89 266.94 71.33C266.63 71.01 265.55 69.88 265.4 69.72Z" id="a26de4RqDa"></path><path d="M288.11 66.88C288.19 66.67 288.8 64.95 288.88 64.73C281.63 62.09 273.53 63.3 267.37 67.96C267.51 68.14 268.62 69.6 268.76 69.79C272.31 67.09 276.65 65.63 281.11 65.65C283.5 65.65 285.87 66.07 288.11 66.88Z" id="e5o95SX1UV"></path></defs><g><g><use xlink:href="#kZKIEcXS6" opacity="1" fill="#8a8890" fill-opacity="1"></use><g><use xlink:href="#kZKIEcXS6" opacity="1" fill-opacity="0" stroke="#000000" stroke-width="1" stroke-opacity="0"></use></g></g><g><use xlink:href="#dfDhoeru5" opacity="1" fill="#58575d" fill-opacity="1"></use><g><use xlink:href="#dfDhoeru5" opacity="1" fill-opacity="0" stroke="#000000" stroke-width="1" stroke-opacity="0"></use></g></g><g><use xlink:href="#c4pve3dmzl" opacity="1" fill="#58575d" fill-opacity="1"></use><g><use xlink:href="#c4pve3dmzl" opacity="1" fill-opacity="0" stroke="#000000" stroke-width="1" stroke-opacity="0"></use></g></g><g><use xlink:href="#c2qla25Z28" opacity="1" fill="#fed324" fill-opacity="1"></use><g><use xlink:href="#c2qla25Z28" opacity="1" fill-opacity="0" stroke="#000000" stroke-width="1" stroke-opacity="0"></use></g></g><g><use xlink:href="#c2DhVO70dy" opacity="1" fill="#f8991e" fill-opacity="1"></use><g><use xlink:href="#c2DhVO70dy" opacity="1" fill-opacity="0" stroke="#000000" stroke-width="1" stroke-opacity="0"></use></g></g><g><use xlink:href="#eCW4Ziu9h" opacity="1" fill="#ffffff" fill-opacity="1"></use><g><use xlink:href="#eCW4Ziu9h" opacity="1" fill-opacity="0" stroke="#000000" stroke-width="1" stroke-opacity="0"></use></g></g><g><use xlink:href="#aw3iU9N" opacity="1" fill="#ffffff" fill-opacity="1"></use><g><use xlink:href="#aw3iU9N" opacity="1" fill-opacity="0" stroke="#000000" stroke-width="1" stroke-opacity="0"></use></g></g><g><use xlink:href="#c7p7OlaKbo" opacity="1" fill="#030303" fill-opacity="1"></use><g><use xlink:href="#c7p7OlaKbo" opacity="1" fill-opacity="0" stroke="#000000" stroke-width="1" stroke-opacity="0"></use></g></g><g><use xlink:href="#c18EukxWG" opacity="1" fill="#ffffff" fill-opacity="1"></use><g><use xlink:href="#c18EukxWG" opacity="1" fill-opacity="0" stroke="#000000" stroke-width="1" stroke-opacity="0"></use></g></g><g><use xlink:href="#ah07HD4qf" opacity="1" fill="#ffffff" fill-opacity="1"></use><g><use xlink:href="#ah07HD4qf" opacity="1" fill-opacity="0" stroke="#000000" stroke-width="1" stroke-opacity="0"></use></g></g><g><use xlink:href="#bBHX311cH" opacity="1" fill="#ffffff" fill-opacity="1"></use><g><use xlink:href="#bBHX311cH" opacity="1" fill-opacity="0" stroke="#000000" stroke-width="1" stroke-opacity="0"></use></g></g><g><use xlink:href="#bdSH45xs" opacity="1" fill="#ffffff" fill-opacity="1"></use><g><use xlink:href="#bdSH45xs" opacity="1" fill-opacity="0" stroke="#000000" stroke-width="1" stroke-opacity="0"></use></g></g><g><use xlink:href="#a26de4RqDa" opacity="1" fill="#ffffff" fill-opacity="1"></use><g><use xlink:href="#a26de4RqDa" opacity="1" fill-opacity="0" stroke="#000000" stroke-width="1" stroke-opacity="0"></use></g></g><g><use xlink:href="#e5o95SX1UV" opacity="1" fill="#ffffff" fill-opacity="1"></use><g><use xlink:href="#e5o95SX1UV" opacity="1" fill-opacity="0" stroke="#000000" stroke-width="1" stroke-opacity="0"></use></g></g></g></svg>