<?xml version="1.0" encoding="UTF-8" standalone="no"?>
<!DOCTYPE svg PUBLIC "-//W3C//DTD SVG 1.1//EN" "http://www.w3.org/Graphics/SVG/1.1/DTD/svg11.dtd">
<svg version="1.1" xmlns="http://www.w3.org/2000/svg" xmlns:xlink="http://www.w3.org/1999/xlink" preserveAspectRatio="xMidYMid meet" viewBox="440.0811151860165 246.5645339126756 81.34862669027257 80.13017152419852" width="77.35" height="76.13"><defs><path d="M448.21 248.74C445.58 248.75 443.45 250.88 443.45 253.5C443.45 259.93 443.45 311.31 443.45 317.73C443.45 320.36 445.58 322.49 448.21 322.5C452.71 322.5 488.68 322.5 493.17 322.5C495.8 322.49 497.93 320.36 497.93 317.73C497.93 311.31 497.93 259.93 497.93 253.5C497.93 250.88 495.8 248.75 493.17 248.74C484.18 248.74 452.71 248.74 448.21 248.74Z" id="biugaGjvg"></path><path d="M447.03 323.69C443.77 323.72 441.11 321.11 441.08 317.86C441.08 317.82 441.08 317.78 441.08 317.74C441.08 311.32 441.08 259.93 441.08 253.51C441.05 250.26 443.65 247.6 446.9 247.56C446.94 247.56 446.98 247.56 447.03 247.56C451.52 247.56 487.49 247.56 491.99 247.56C495.24 247.53 497.9 250.13 497.93 253.38C497.93 253.42 497.93 253.47 497.93 253.51C497.93 259.93 497.93 311.32 497.93 317.74C497.97 320.99 495.36 323.66 492.11 323.69C492.07 323.69 492.03 323.69 491.99 323.69C483 323.69 451.52 323.69 447.03 323.69ZM447.03 249.94C445.09 249.9 443.49 251.44 443.46 253.38C443.46 253.42 443.46 253.47 443.46 253.51C443.46 259.93 443.46 311.32 443.46 317.74C443.42 319.67 444.96 321.27 446.9 321.31C446.94 321.31 446.98 321.31 447.03 321.31C451.52 321.31 487.49 321.31 491.99 321.31C493.92 321.34 495.52 319.8 495.56 317.87C495.56 317.83 495.56 317.78 495.56 317.74C495.56 311.32 495.56 259.93 495.56 253.51C495.59 251.57 494.05 249.98 492.12 249.94C492.08 249.94 492.03 249.94 491.99 249.94C483 249.94 456.02 249.94 447.03 249.94Z" id="a6fUh7mYf"></path><path d="M493.17 253.5C493.17 253.5 493.17 253.5 493.17 253.5C493.17 292.05 493.17 313.46 493.17 317.74C493.17 317.74 493.17 317.74 493.17 317.74C466.19 317.74 451.21 317.74 448.21 317.74C448.21 317.74 448.21 317.74 448.21 317.74C448.21 279.2 448.21 257.79 448.21 253.5C448.21 253.5 448.21 253.5 448.21 253.5C475.19 253.5 490.17 253.5 493.17 253.5Z" id="aMgtsXRFz"></path><path d="M500.9 291.93C509.55 283.29 514.35 278.49 515.31 277.53C517.9 274.96 517.92 270.78 515.35 268.18C515.34 268.17 515.32 268.15 515.31 268.14C515.31 268.14 515.31 268.14 515.31 268.14C512.76 265.54 508.58 265.51 505.99 268.06C505.96 268.09 505.94 268.11 505.91 268.14C504.95 269.1 500.15 273.89 491.52 282.52L500.9 291.93Z" id="d6Nz9yW9vI"></path><path d="M500.07 292.76C499.13 291.82 491.62 284.3 490.68 283.36C490.22 282.93 490.19 282.21 490.62 281.75C490.64 281.73 490.66 281.71 490.68 281.69C492.12 280.26 503.63 268.74 505.07 267.3C508.14 264.25 513.1 264.26 516.15 267.32C519.2 270.38 519.19 275.34 516.13 278.39C514.69 279.83 503.18 291.35 501.74 292.79C501.51 292.99 501.21 293.11 500.9 293.11C500.59 293.12 500.28 292.99 500.07 292.76ZM493.17 282.52L500.9 290.26C509.04 282.12 513.57 277.6 514.47 276.7C516.54 274.49 516.43 271.03 514.23 268.96C512.12 266.98 508.83 266.98 506.73 268.97C504.92 270.77 500.4 275.29 493.17 282.52Z" id="c2h19698mM"></path><path d="M512.69 275.15C511.89 275.94 507.92 279.91 500.78 287.05L496.39 282.69C503.52 275.55 507.48 271.59 508.28 270.79C509.49 269.59 511.45 269.57 512.69 270.75C513.84 271.99 513.84 273.91 512.69 275.15Z" id="f22G9Vwsj0"></path><path d="M474.85 308.57L476.87 299.54L492.7 283.72L499.72 290.74L483.89 306.55L483.89 306.55L474.85 308.57Z" id="b3lnSgO6v"></path><path d="M473.67 308.34C473.87 307.43 475.49 300.21 475.69 299.31C475.68 299.05 475.82 298.82 476.04 298.7C477.61 297.13 490.17 284.58 491.74 283.01C492.17 282.55 492.89 282.52 493.35 282.95C493.37 282.97 493.39 282.99 493.41 283.01C494.11 283.71 499.73 289.32 500.43 290.03C500.89 290.46 500.91 291.18 500.47 291.64C500.46 291.65 500.44 291.67 500.43 291.68C498.86 293.26 486.3 305.85 484.73 307.42C484.55 307.56 484.34 307.68 484.13 307.78C483.23 307.98 475.99 309.6 475.09 309.8C474.7 309.78 474.33 309.65 474.02 309.41C473.78 309.11 473.66 308.73 473.67 308.34ZM477.95 300.13L476.4 307.04L483.3 305.49L497.93 290.85L492.56 285.48L477.95 300.13Z" id="l3jmawvYgr"></path><path d="M472.33 309.44C472.34 309.43 472.35 309.42 472.36 309.41C472.52 309.24 473.86 307.91 474.02 307.74C474.44 307.25 475.19 307.18 475.69 307.6C476.19 308.02 476.25 308.77 475.83 309.27C475.79 309.32 475.74 309.37 475.69 309.41C475.52 309.58 474.19 310.91 474.02 311.08C473.58 311.54 472.84 311.55 472.38 311.1C472.37 311.09 472.37 311.09 472.36 311.08C471.9 310.63 471.89 309.9 472.33 309.44Z" id="c196LWMDBJ"></path><path d="M451.78 261.35L453.45 259.69L455.94 262.19L461.06 257.07L462.72 258.74L455.94 265.51L455.94 265.51L451.78 261.35Z" id="g14yQHqAPw"></path><path d="M451.78 274.08L453.45 272.42L455.94 274.91L461.06 269.8L462.72 271.47L455.94 278.24L455.94 278.24L451.78 274.08Z" id="b4MaQvwX26"></path><path d="M451.78 286.81L453.45 285.15L455.94 287.64L461.06 282.52L462.72 284.19L455.94 290.97L455.94 290.97L451.78 286.81Z" id="b16ukZkhis"></path><path d="M451.78 299.54L453.45 297.88L455.94 300.37L461.06 295.25L462.72 296.92L455.94 303.7L455.94 303.7L451.78 299.54Z" id="b1sniHpiUP"></path><path d="M489.01 260.16C489.01 260.16 489.01 260.16 489.01 260.16C489.01 261.59 489.01 262.38 489.01 262.54C489.01 262.54 489.01 262.54 489.01 262.54C476.88 262.54 470.14 262.54 468.79 262.54C468.79 262.54 468.79 262.54 468.79 262.54C468.79 261.11 468.79 260.32 468.79 260.16C468.79 260.16 468.79 260.16 468.79 260.16C480.92 260.16 487.66 260.16 489.01 260.16Z" id="dIl43wZ7a"></path><path d="M489.01 272.89C489.01 272.89 489.01 272.89 489.01 272.89C489.01 274.32 489.01 275.11 489.01 275.27C489.01 275.27 489.01 275.27 489.01 275.27C476.88 275.27 470.14 275.27 468.79 275.27C468.79 275.27 468.79 275.27 468.79 275.27C468.79 273.84 468.79 273.05 468.79 272.89C468.79 272.89 468.79 272.89 468.79 272.89C480.92 272.89 487.66 272.89 489.01 272.89Z" id="d4qmu9TRz"></path><path d="M483.07 285.62C483.07 285.62 483.07 285.62 483.07 285.62C483.07 287.04 483.07 287.84 483.07 287.99C483.07 287.99 483.07 287.99 483.07 287.99C474.5 287.99 469.74 287.99 468.79 287.99C468.79 287.99 468.79 287.99 468.79 287.99C468.79 286.57 468.79 285.78 468.79 285.62C468.79 285.62 468.79 285.62 468.79 285.62C477.35 285.62 482.11 285.62 483.07 285.62Z" id="b1JQUoW2Gu"></path><path d="M472.36 298.35C472.36 298.35 472.36 298.35 472.36 298.35C472.36 299.77 472.36 300.57 472.36 300.72C472.36 300.72 472.36 300.72 472.36 300.72C470.22 300.72 469.03 300.72 468.79 300.72C468.79 300.72 468.79 300.72 468.79 300.72C468.79 299.3 468.79 298.51 468.79 298.35C468.79 298.35 468.79 298.35 468.79 298.35C470.93 298.35 472.12 298.35 472.36 298.35Z" id="a38qHYzO4e"></path><path d="M454.86 311.43C454.86 311.43 454.86 311.43 454.86 311.43C454.86 312.86 454.86 313.65 454.86 313.81C454.86 313.81 454.86 313.81 454.86 313.81C453.44 313.81 452.65 313.81 452.49 313.81C452.49 313.81 452.49 313.81 452.49 313.81C452.49 312.38 452.49 311.59 452.49 311.43C452.49 311.43 452.49 311.43 452.49 311.43C453.91 311.43 454.71 311.43 454.86 311.43Z" id="b35h1126gl"></path><path d="M459.63 311.43C459.63 311.43 459.63 311.43 459.63 311.43C459.63 312.86 459.63 313.65 459.63 313.81C459.63 313.81 459.63 313.81 459.63 313.81C458.2 313.81 457.41 313.81 457.25 313.81C457.25 313.81 457.25 313.81 457.25 313.81C457.25 312.38 457.25 311.59 457.25 311.43C457.25 311.43 457.25 311.43 457.25 311.43C458.68 311.43 459.47 311.43 459.63 311.43Z" id="a6apsJyyN"></path><path d="M464.38 311.43C464.38 311.43 464.38 311.43 464.38 311.43C464.38 312.86 464.38 313.65 464.38 313.81C464.38 313.81 464.38 313.81 464.38 313.81C462.95 313.81 462.16 313.81 462 313.81C462 313.81 462 313.81 462 313.81C462 312.38 462 311.59 462 311.43C462 311.43 462 311.43 462 311.43C463.43 311.43 464.22 311.43 464.38 311.43Z" id="a1msqqbHiK"></path><path d="M469.14 311.43C469.14 311.43 469.14 311.43 469.14 311.43C469.14 312.86 469.14 313.65 469.14 313.81C469.14 313.81 469.14 313.81 469.14 313.81C467.72 313.81 466.92 313.81 466.77 313.81C466.77 313.81 466.77 313.81 466.77 313.81C466.77 312.38 466.77 311.59 466.77 311.43C466.77 311.43 466.77 311.43 466.77 311.43C468.19 311.43 468.98 311.43 469.14 311.43Z" id="arfhIYXRn"></path></defs><g><g><use xlink:href="#biugaGjvg" opacity="1" fill="#cfd1d2" fill-opacity="1"></use><g><use xlink:href="#biugaGjvg" opacity="1" fill-opacity="0" stroke="#000000" stroke-width="1" stroke-opacity="0"></use></g></g><g><use xlink:href="#a6fUh7mYf" opacity="1" fill="#183651" fill-opacity="1"></use><g><use xlink:href="#a6fUh7mYf" opacity="1" fill-opacity="0" stroke="#000000" stroke-width="1" stroke-opacity="0"></use></g></g><g><use xlink:href="#aMgtsXRFz" opacity="1" fill="#ffffff" fill-opacity="1"></use><g><use xlink:href="#aMgtsXRFz" opacity="1" fill-opacity="0" stroke="#000000" stroke-width="1" stroke-opacity="0"></use></g></g><g><use xlink:href="#d6Nz9yW9vI" opacity="1" fill="#f05262" fill-opacity="1"></use><g><use xlink:href="#d6Nz9yW9vI" opacity="1" fill-opacity="0" stroke="#000000" stroke-width="1" stroke-opacity="0"></use></g></g><g><use xlink:href="#c2h19698mM" opacity="1" fill="#183651" fill-opacity="1"></use><g><use xlink:href="#c2h19698mM" opacity="1" fill-opacity="0" stroke="#000000" stroke-width="1" stroke-opacity="0"></use></g></g><g><use xlink:href="#f22G9Vwsj0" opacity="1" fill="#ffffff" fill-opacity="1"></use><g><use xlink:href="#f22G9Vwsj0" opacity="1" fill-opacity="0" stroke="#000000" stroke-width="1" stroke-opacity="0"></use></g></g><g><use xlink:href="#b3lnSgO6v" opacity="1" fill="#fbbd5e" fill-opacity="1"></use><g><use xlink:href="#b3lnSgO6v" opacity="1" fill-opacity="0" stroke="#000000" stroke-width="1" stroke-opacity="0"></use></g></g><g><use xlink:href="#l3jmawvYgr" opacity="1" fill="#183651" fill-opacity="1"></use><g><use xlink:href="#l3jmawvYgr" opacity="1" fill-opacity="0" stroke="#000000" stroke-width="1" stroke-opacity="0"></use></g></g><g><use xlink:href="#c196LWMDBJ" opacity="1" fill="#183651" fill-opacity="1"></use><g><use xlink:href="#c196LWMDBJ" opacity="1" fill-opacity="0" stroke="#000000" stroke-width="1" stroke-opacity="0"></use></g></g><g><use xlink:href="#g14yQHqAPw" opacity="1" fill="#183651" fill-opacity="1"></use><g><use xlink:href="#g14yQHqAPw" opacity="1" fill-opacity="0" stroke="#000000" stroke-width="1" stroke-opacity="0"></use></g></g><g><use xlink:href="#b4MaQvwX26" opacity="1" fill="#183651" fill-opacity="1"></use><g><use xlink:href="#b4MaQvwX26" opacity="1" fill-opacity="0" stroke="#000000" stroke-width="1" stroke-opacity="0"></use></g></g><g><use xlink:href="#b16ukZkhis" opacity="1" fill="#183651" fill-opacity="1"></use><g><use xlink:href="#b16ukZkhis" opacity="1" fill-opacity="0" stroke="#000000" stroke-width="1" stroke-opacity="0"></use></g></g><g><use xlink:href="#b1sniHpiUP" opacity="1" fill="#183651" fill-opacity="1"></use><g><use xlink:href="#b1sniHpiUP" opacity="1" fill-opacity="0" stroke="#000000" stroke-width="1" stroke-opacity="0"></use></g></g><g><use xlink:href="#dIl43wZ7a" opacity="1" fill="#183651" fill-opacity="1"></use><g><use xlink:href="#dIl43wZ7a" opacity="1" fill-opacity="0" stroke="#000000" stroke-width="1" stroke-opacity="0"></use></g></g><g><use xlink:href="#d4qmu9TRz" opacity="1" fill="#183651" fill-opacity="1"></use><g><use xlink:href="#d4qmu9TRz" opacity="1" fill-opacity="0" stroke="#000000" stroke-width="1" stroke-opacity="0"></use></g></g><g><use xlink:href="#b1JQUoW2Gu" opacity="1" fill="#183651" fill-opacity="1"></use><g><use xlink:href="#b1JQUoW2Gu" opacity="1" fill-opacity="0" stroke="#000000" stroke-width="1" stroke-opacity="0"></use></g></g><g><use xlink:href="#a38qHYzO4e" opacity="1" fill="#183651" fill-opacity="1"></use><g><use xlink:href="#a38qHYzO4e" opacity="1" fill-opacity="0" stroke="#000000" stroke-width="1" stroke-opacity="0"></use></g></g><g><use xlink:href="#b35h1126gl" opacity="1" fill="#183651" fill-opacity="1"></use><g><use xlink:href="#b35h1126gl" opacity="1" fill-opacity="0" stroke="#000000" stroke-width="1" stroke-opacity="0"></use></g></g><g><use xlink:href="#a6apsJyyN" opacity="1" fill="#183651" fill-opacity="1"></use><g><use xlink:href="#a6apsJyyN" opacity="1" fill-opacity="0" stroke="#000000" stroke-width="1" stroke-opacity="0"></use></g></g><g><use xlink:href="#a1msqqbHiK" opacity="1" fill="#183651" fill-opacity="1"></use><g><use xlink:href="#a1msqqbHiK" opacity="1" fill-opacity="0" stroke="#000000" stroke-width="1" stroke-opacity="0"></use></g></g><g><use xlink:href="#arfhIYXRn" opacity="1" fill="#183651" fill-opacity="1"></use><g><use xlink:href="#arfhIYXRn" opacity="1" fill-opacity="0" stroke="#000000" stroke-width="1" stroke-opacity="0"></use></g></g></g></svg>