<?xml version="1.0" encoding="UTF-8" standalone="no"?>
<!DOCTYPE svg PUBLIC "-//W3C//DTD SVG 1.1//EN" "http://www.w3.org/Graphics/SVG/1.1/DTD/svg11.dtd">
<svg version="1.1" xmlns="http://www.w3.org/2000/svg" xmlns:xlink="http://www.w3.org/1999/xlink" preserveAspectRatio="xMidYMid meet" viewBox="91.13905394902224 402.33792581116734 80.20481118129283 89.10688576193587" width="76.2" height="85.11"><defs><path d="M149.77 482.15C149.77 485.27 147.23 487.81 144.11 487.81C139.48 487.81 102.46 487.81 97.83 487.81C94.71 487.8 92.18 485.27 92.17 482.15C92.17 475.79 92.17 424.87 92.17 418.5C92.18 415.38 94.71 412.85 97.83 412.85C102.46 412.85 139.51 412.85 144.14 412.85C147.25 412.87 149.77 415.39 149.77 418.5C149.77 431.23 149.77 475.79 149.77 482.15Z" id="d1ZLKnoZ0K"></path><path d="M144.15 423.46C141.86 423.46 123.47 423.46 121.17 423.46C111.02 423.45 102.8 431.67 102.78 441.81C102.78 445.84 102.78 478.1 102.78 482.13C102.78 488.02 94.5 489.58 92.51 484.03C92.29 483.42 92.17 482.77 92.17 482.12C92.17 475.75 92.17 424.84 92.17 418.47C92.18 415.35 94.71 412.82 97.83 412.82C147.77 412.85 144.75 412.71 146.06 413.18C151.6 415.18 150.05 423.46 144.15 423.46Z" id="c1aSxfuQSR"></path><path d="M135.79 412.85C135.79 416.04 135.79 417.81 135.79 418.16C135.79 420.5 133.89 422.4 131.55 422.4C129.44 422.4 112.5 422.4 110.38 422.4C108.03 422.4 106.12 420.51 106.08 418.16C106.08 417.81 106.08 416.04 106.08 412.85L135.79 412.85Z" id="bzVG68u2"></path><path d="M165.54 476.67C165.51 479 163.62 480.89 161.29 480.92C157.93 480.92 131.06 480.92 127.7 480.92C125.35 480.92 123.43 479.02 123.4 476.67C123.4 473.31 123.4 446.44 123.4 443.08C123.43 440.73 125.35 438.83 127.7 438.83C131.06 438.83 157.93 438.83 161.29 438.83C163.62 438.86 165.51 440.75 165.54 443.08C165.54 449.8 165.54 473.31 165.54 476.67Z" id="bjLVDu7YB"></path><path d="M111.98 472.46C111.95 474.8 110.06 476.68 107.73 476.71C107.41 476.71 104.83 476.71 104.5 476.71C102.17 476.65 100.32 474.75 100.31 472.42C100.31 472.1 100.31 469.52 100.31 469.2C100.35 466.87 102.22 464.99 104.55 464.96C104.87 464.96 107.45 464.96 107.77 464.96C110.1 465.01 111.96 466.91 111.98 469.24C111.98 469.88 111.98 472.14 111.98 472.46Z" id="b4WB6RdGZ"></path><path d="M141.84 445.91C135.6 445.91 130.53 450.97 130.53 457.22C130.53 459.16 130.53 474.71 130.53 476.66C130.53 481.11 123.9 481.5 123.48 477.07C123.48 476.75 123.48 442.91 123.48 443.08C123.51 440.73 125.43 438.83 127.78 438.83C131.14 438.83 158.01 438.83 161.37 438.83C166.18 438.83 165.97 445.91 161.37 445.91C161.35 445.91 143.79 445.91 141.84 445.91Z" id="a1tibLfkkX"></path><path d="M151.03 438.83C151.03 444.83 151.03 448.16 151.03 448.82C151.03 450.38 149.77 451.65 148.21 451.65C147.48 451.65 141.69 451.65 140.96 451.65C139.4 451.65 138.13 450.38 138.13 448.82C138.13 448.16 138.13 444.83 138.13 438.83L151.03 438.83Z" id="a3N1d07dn0"></path><path d="M151.03 448.82C151.03 450.38 149.77 451.65 148.21 451.65C147.48 451.65 141.69 451.65 140.96 451.65C139.4 451.65 138.13 450.38 138.13 448.82C138.13 448.59 138.13 446.76 138.13 446.53C140.46 445.73 141.24 445.91 151.03 445.91C151.03 446.49 151.03 448.53 151.03 448.82Z" id="aptVzCeQ2"></path><path d="M107.9 437.03C107.36 437.58 106.48 437.59 105.92 437.06C105.92 437.05 105.91 437.04 105.9 437.03C105.66 436.79 103.75 434.88 103.51 434.65C102.96 434.11 102.95 433.22 103.49 432.67C103.5 432.66 103.51 432.65 103.51 432.65C104.07 432.1 104.96 432.1 105.51 432.65C105.61 432.74 106.07 433.2 106.9 434.03C109.32 431.61 110.66 430.27 110.93 430C111.44 429.4 112.33 429.33 112.93 429.83C113.53 430.34 113.61 431.23 113.1 431.83C113.05 431.89 112.99 431.95 112.93 432C111.93 433.01 108.4 436.53 107.9 437.03ZM110.93 448.2C110.66 448.47 109.32 449.82 106.9 452.25C106.07 451.41 105.61 450.95 105.51 450.86C104.98 450.28 104.08 450.25 103.51 450.78C102.93 451.31 102.9 452.21 103.43 452.78C103.45 452.81 103.48 452.84 103.51 452.87C103.75 453.11 105.66 455.02 105.9 455.26C106.45 455.81 107.35 455.81 107.9 455.26C108.4 454.75 112.43 450.72 112.93 450.21C113.49 449.68 113.5 448.79 112.97 448.24C112.95 448.23 112.94 448.21 112.93 448.2C112.38 447.65 111.49 447.65 110.93 448.2ZM145.52 488.44C140.89 488.44 103.83 488.44 99.2 488.44C95.3 488.44 92.14 485.28 92.14 481.38C92.14 475.02 92.14 424.1 92.14 417.73C92.14 413.84 95.3 410.68 99.2 410.67C100.33 410.67 105.99 410.67 116.18 410.67C116.18 410.14 116.18 409.85 116.18 409.79C116.04 406.37 118.69 403.49 122.11 403.34C125.53 403.2 128.41 405.86 128.55 409.27C128.56 409.44 128.56 409.62 128.55 409.79C128.55 409.85 128.55 410.14 128.55 410.67C138.73 410.67 144.39 410.67 145.52 410.67C149.42 410.67 152.59 413.83 152.59 417.73C152.59 419.25 152.59 431.37 152.59 432.88C152.66 433.66 152.08 434.35 151.3 434.42C150.52 434.49 149.83 433.91 149.77 433.13C149.76 433.05 149.76 432.96 149.77 432.88C149.77 431.37 149.77 419.25 149.77 417.73C149.73 415.38 147.82 413.5 145.47 413.5C140.84 413.5 103.83 413.5 99.2 413.5C96.88 413.53 95 415.41 94.97 417.73C94.97 424.1 94.97 475.02 94.97 481.38C95 483.71 96.88 485.58 99.2 485.62C103.83 485.62 140.89 485.62 145.52 485.62C146.3 485.62 146.94 486.25 146.94 487.04C146.94 487.04 146.94 487.04 146.94 487.04C146.93 487.82 146.3 488.44 145.52 488.44ZM118.98 410.7L125.7 410.7C125.7 410.17 125.7 409.88 125.7 409.82C125.81 407.97 124.39 406.38 122.53 406.27C120.68 406.17 119.09 407.59 118.98 409.44C118.98 409.57 118.98 409.69 118.98 409.82C118.98 409.94 118.98 410.23 118.98 410.7ZM137.34 415.85C136.56 415.78 135.87 416.36 135.8 417.14C135.79 417.23 135.79 417.31 135.8 417.39C135.8 418.95 134.53 420.22 132.97 420.22C130.85 420.22 113.88 420.22 111.76 420.22C110.2 420.22 108.93 418.95 108.93 417.39C108.93 417.39 108.93 417.39 108.93 417.39C109 416.61 108.42 415.92 107.64 415.85C106.86 415.78 106.17 416.36 106.1 417.14C106.1 417.23 106.1 417.31 106.1 417.39C106.11 420.51 108.64 423.04 111.76 423.04C113.88 423.04 130.85 423.04 132.97 423.04C136.09 423.04 138.62 420.51 138.63 417.39C138.7 416.61 138.12 415.92 137.34 415.85ZM113.35 471.69C113.32 474.03 111.44 475.91 109.1 475.94C108.78 475.94 106.2 475.94 105.88 475.94C103.55 475.88 101.69 473.98 101.69 471.65C101.69 471.33 101.69 468.75 101.69 468.43C101.72 466.1 103.6 464.22 105.92 464.19C106.24 464.19 108.82 464.19 109.15 464.19C111.48 464.24 113.34 466.14 113.35 468.47C113.35 469.11 113.35 471.37 113.35 471.69ZM110.52 468.47C110.52 467.69 109.88 467.06 109.1 467.06C108.78 467.06 106.2 467.06 105.88 467.06C105.1 467.06 104.47 467.69 104.47 468.47C104.47 468.47 104.47 468.47 104.47 468.47C104.47 468.79 104.47 471.37 104.47 471.69C104.47 472.47 105.1 473.11 105.88 473.11C106.2 473.11 108.78 473.11 109.1 473.11C109.89 473.11 110.52 472.48 110.52 471.69C110.52 471.05 110.52 469.11 110.52 468.47ZM132.26 469.36C131.48 469.29 130.79 469.87 130.73 470.65C130.66 471.43 131.24 472.12 132.02 472.19C132.1 472.2 132.18 472.2 132.26 472.19C132.74 472.19 136.56 472.19 137.04 472.19C137.82 472.26 138.51 471.68 138.57 470.9C138.64 470.12 138.06 469.43 137.28 469.36C137.2 469.35 137.12 469.35 137.04 469.36C136.08 469.36 132.74 469.36 132.26 469.36ZM168.34 475.9C168.34 479.02 165.81 481.55 162.69 481.55C159.33 481.55 132.44 481.55 129.08 481.55C125.96 481.55 123.43 479.02 123.43 475.9C123.43 472.54 123.43 445.67 123.43 442.31C123.43 439.19 125.96 436.66 129.08 436.66C132.44 436.66 159.31 436.66 162.67 436.66C165.8 436.65 168.34 439.18 168.34 442.31C168.34 442.31 168.34 442.31 168.34 442.31C168.34 449.03 168.34 472.54 168.34 475.9ZM165.52 442.31C165.52 440.75 164.25 439.48 162.69 439.48C161.24 439.48 153.98 439.48 140.93 439.48C140.93 444.64 140.93 447.51 140.93 448.08C140.93 448.86 141.56 449.5 142.34 449.5C143.06 449.5 148.86 449.5 149.58 449.5C150.37 449.5 151 448.87 151 448.08C151 447.64 151 444.04 151 443.59C151.07 442.81 151.76 442.23 152.54 442.3C153.23 442.36 153.77 442.9 153.83 443.59C153.83 444.04 153.83 447.64 153.83 448.08C153.8 450.42 151.92 452.3 149.58 452.33C148.86 452.33 143.06 452.33 142.34 452.33C140.01 452.3 138.13 450.41 138.1 448.08C138.1 447.51 138.1 444.64 138.1 439.48C132.69 439.48 129.68 439.48 129.08 439.48C127.52 439.48 126.25 440.75 126.25 442.31C126.25 445.67 126.25 472.54 126.25 475.9C126.25 477.46 127.52 478.73 129.08 478.73C132.44 478.73 159.31 478.73 162.67 478.73C164.23 478.73 165.49 477.46 165.49 475.9C165.5 469.18 165.51 449.03 165.52 442.31Z" id="ca5GTjHuB"></path></defs><g><g><use xlink:href="#d1ZLKnoZ0K" opacity="1" fill="#d7eff7" fill-opacity="1"></use><g><use xlink:href="#d1ZLKnoZ0K" opacity="1" fill-opacity="0" stroke="#000000" stroke-width="1" stroke-opacity="0"></use></g></g><g><use xlink:href="#c1aSxfuQSR" opacity="1" fill="#e9f6fb" fill-opacity="1"></use><g><use xlink:href="#c1aSxfuQSR" opacity="1" fill-opacity="0" stroke="#000000" stroke-width="1" stroke-opacity="0"></use></g></g><g><use xlink:href="#bzVG68u2" opacity="1" fill="#5cc0de" fill-opacity="1"></use><g><use xlink:href="#bzVG68u2" opacity="1" fill-opacity="0" stroke="#000000" stroke-width="1" stroke-opacity="0"></use></g></g><g><use xlink:href="#bjLVDu7YB" opacity="1" fill="#faa966" fill-opacity="1"></use><g><use xlink:href="#bjLVDu7YB" opacity="1" fill-opacity="0" stroke="#000000" stroke-width="1" stroke-opacity="0"></use></g></g><g><use xlink:href="#b4WB6RdGZ" opacity="1" fill="#ffffff" fill-opacity="1"></use><g><use xlink:href="#b4WB6RdGZ" opacity="1" fill-opacity="0" stroke="#000000" stroke-width="1" stroke-opacity="0"></use></g></g><g><use xlink:href="#a1tibLfkkX" opacity="1" fill="#fcbc7b" fill-opacity="1"></use><g><use xlink:href="#a1tibLfkkX" opacity="1" fill-opacity="0" stroke="#000000" stroke-width="1" stroke-opacity="0"></use></g></g><g><use xlink:href="#a3N1d07dn0" opacity="1" fill="#e9f6fb" fill-opacity="1"></use><g><use xlink:href="#a3N1d07dn0" opacity="1" fill-opacity="0" stroke="#000000" stroke-width="1" stroke-opacity="0"></use></g></g><g><use xlink:href="#aptVzCeQ2" opacity="1" fill="#d7eff7" fill-opacity="1"></use><g><use xlink:href="#aptVzCeQ2" opacity="1" fill-opacity="0" stroke="#000000" stroke-width="1" stroke-opacity="0"></use></g></g><g><use xlink:href="#ca5GTjHuB" opacity="1" fill="#010101" fill-opacity="1"></use><g><use xlink:href="#ca5GTjHuB" opacity="1" fill-opacity="0" stroke="#000000" stroke-width="1" stroke-opacity="0"></use></g></g></g></svg>